# xmcd
#
# Track frame offsets: 
#        150
#        17518
#        31870
#        52800
#        68683
#        88863
#        104730
#        120485
#        137718
#        153835
#        169150
#        188010
#        208191
#        222593
#        235335
#        258586
#
# Disc length: 3651 seconds
#
# Revision: 1
# Processed by: cddbd v1.5.2PL0 Copyright (c) Steve Scherf et al.
# Submitted via: ExactAudioCopyFreeDBPlugin 1.0
#
DISCID=de0e4110
DTITLE=Bleu - Redhead
DYEAR=2003
DGENRE=Pop
TTITLE0=Get Up
TTITLE1=I Won't Go Hollywood
TTITLE2=That's When I Crash
TTITLE3=We'll Do It All Again
TTITLE4=Searchin' For The Satellites
TTITLE5=Could Be Worse
TTITLE6=Watchin' You Sleep
TTITLE7=Something's Gotta Give
TTITLE8=Somebody Else
TTITLE9=You Know, I Know, You Know
TTITLE10=Trust Me
TTITLE11=3's A Charm
TTITLE12=Sayonara (Bonus Track)
TTITLE13=Just A Song (Bonus Track)
TTITLE14=Feet Don't Fail (Hidden Bonus Track)
TTITLE15=Dance Dance Baby Doll Dance (Hidden Bonus Track)
EXTD=
EXTT0=
EXTT1=
EXTT2=
EXTT3=
EXTT4=
EXTT5=
EXTT6=
EXTT7=
EXTT8=
EXTT9=
EXTT10=
EXTT11=
EXTT12=
EXTT13=
EXTT14=
EXTT15=
PLAYORDER=
